<svg width="48" height="48" viewBox="0 0 48 48" fill="none" xmlns="http://www.w3.org/2000/svg">
<path d="M24 35.2275C24 35.2275 24 35.2275 23.9888 35.2275C23.508 35.5478 23.0069 35.8365 22.4888 36.0919V43.5C22.4888 43.8979 22.6468 44.2794 22.9281 44.5607C23.2094 44.842 23.5909 45 23.9888 45C24.3866 45 24.7681 44.842 25.0494 44.5607C25.3307 44.2794 25.4888 43.8979 25.4888 43.5V36.0919C24.9706 35.8365 24.4696 35.5478 23.9888 35.2275H24Z" fill="#03DAC6"/>
<path d="M37.1437 11.7375C36.0587 9.1467 34.2321 6.93437 31.8936 5.37846C29.555 3.82254 26.8088 2.99243 24 2.99243C21.1911 2.99243 18.4449 3.82254 16.1064 5.37846C13.7679 6.93437 11.9413 9.1467 10.8562 11.7375C8.52133 12.8193 6.5426 14.5433 5.15138 16.7082C3.76017 18.873 3.01396 21.3892 2.99999 23.9625C2.97937 31.2412 8.87999 37.3125 16.1512 37.5C18.3509 37.5574 20.5309 37.0739 22.5 36.0919V29.4262L14.3287 25.3425C13.9727 25.1645 13.7019 24.8523 13.5761 24.4746C13.4502 24.097 13.4795 23.6848 13.6575 23.3287C13.8355 22.9727 14.1477 22.7019 14.5253 22.5761C14.903 22.4502 15.3152 22.4795 15.6712 22.6575L22.5 26.0737V16.5C22.5 16.1022 22.658 15.7206 22.9393 15.4393C23.2206 15.158 23.6022 15 24 15C24.3978 15 24.7793 15.158 25.0607 15.4393C25.342 15.7206 25.5 16.1022 25.5 16.5V21.5737L32.3287 18.1575C32.505 18.0693 32.697 18.0168 32.8936 18.0028C33.0902 17.9888 33.2876 18.0137 33.4746 18.0761C33.6616 18.1384 33.8345 18.2369 33.9834 18.3661C34.1323 18.4952 34.2543 18.6524 34.3425 18.8287C34.4306 19.005 34.4832 19.197 34.4972 19.3936C34.5111 19.5902 34.4863 19.7876 34.4239 19.9746C34.3616 20.1616 34.263 20.3345 34.1339 20.4834C34.0048 20.6323 33.8475 20.7543 33.6712 20.8425L25.5 24.9262V36.0919C27.3634 37.0212 29.4177 37.5033 31.5 37.5H31.8487C39.12 37.3125 45.0206 31.245 45 23.9662C44.9874 21.3922 44.2418 18.8749 42.8505 16.7092C41.4591 14.5435 39.4797 12.819 37.1437 11.7375Z" fill="#03DAC6"/>
</svg>
